<svg xmlns="http://www.w3.org/2000/svg" viewBox="0 0 316.62 50"><defs><style>.cls-1{fill:#0071bc;}.cls-2{fill:#fff;}</style></defs><title>webdev-logo-w</title><g id="Layer_2" data-name="Layer 2"><g id="Layer_1-2" data-name="Layer 1"><path id="_Compound_Path_" data-name="&lt;Compound Path&gt;" class="cls-1" d="M10,49.19,0,14.52H9.7l3.6,14.25q.14.54.48,2.44t.54,2.65q.14-.48.54-2.44t.61-2.65l3.66-14.25h8.82l3.6,14.25q.14.54.54,2.44t.61,2.65c.09-.41.24-1.26.44-2.55a19.43,19.43,0,0,1,.51-2.54l3.8-14.25h9.7l-10,34.67H28.42L24.76,33.45q0-.2-.51-2.37c-.34-1.45-.55-2.53-.64-3.26-.09.54-.23,1.21-.41,2s-.36,1.55-.54,2.27l-.34,1.36L18.66,49.19Z"/><path id="_Compound_Path_2" data-name="&lt;Compound Path&gt;" class="cls-1" d="M69.2,50q-7.67,0-12.08-4.82T52.71,31.82q0-8.34,4.45-13.23t12-4.89a15.5,15.5,0,0,1,11.26,4.21q4.34,4.21,4.34,12.21a35.81,35.81,0,0,1-.27,5.09H62.35a6.34,6.34,0,0,0,2,4.85,7.23,7.23,0,0,0,4.82,1.6A9.71,9.71,0,0,0,77,38l5.7,5.7A16.71,16.71,0,0,1,69.2,50ZM62.41,27.81h13Q74.62,22,68.79,22a6.25,6.25,0,0,0-4.34,1.53A6.58,6.58,0,0,0,62.41,27.81Z"/><path id="_Compound_Path_3" data-name="&lt;Compound Path&gt;" class="cls-1" d="M109.16,50a6.87,6.87,0,0,1-6.38-3.46v2.65H92.94V4.61L102.78.2V17a8,8,0,0,1,6.92-3.32,12.79,12.79,0,0,1,10.31,5q4.07,5,4.07,13.16,0,8.68-4,13.43A13.53,13.53,0,0,1,109.16,50Zm-1.09-9.5a5.23,5.23,0,0,0,4.58-2.31,11.09,11.09,0,0,0,1.59-6.38,10.9,10.9,0,0,0-1.59-6.38,5.28,5.28,0,0,0-4.58-2.24,6.44,6.44,0,0,0-5.29,2.24V38.33Q104.48,40.5,108.07,40.5Z"/><path id="_Compound_Path_4" data-name="&lt;Compound Path&gt;" class="cls-1" d="M145.12,50a12.74,12.74,0,0,1-10.41-4.68q-3.84-4.68-3.84-13.5,0-8.21,4.07-13.16a12.78,12.78,0,0,1,10.31-5,8,8,0,0,1,6.92,3.46V4.61L162,.2v49h-9.84V46.34Q150.27,50,145.12,50Zm1.7-9.5q3.79,0,5.36-2.17V25.51a6.44,6.44,0,0,0-5.36-2.31,5.21,5.21,0,0,0-4.51,2.24,10.9,10.9,0,0,0-1.59,6.38Q140.71,40.5,146.81,40.5Z"/><path id="_Compound_Path_5" data-name="&lt;Compound Path&gt;" class="cls-1" d="M187,50q-7.67,0-12.08-4.82t-4.41-13.36q0-8.34,4.45-13.23t12-4.89a15.5,15.5,0,0,1,11.26,4.21q4.34,4.21,4.34,12.21a35.81,35.81,0,0,1-.27,5.09H180.12a6.34,6.34,0,0,0,2,4.85,7.23,7.23,0,0,0,4.82,1.6,9.71,9.71,0,0,0,7.8-3.66l5.7,5.7A16.71,16.71,0,0,1,187,50Zm-6.79-22.19h13Q192.4,22,186.56,22a6.25,6.25,0,0,0-4.34,1.53A6.58,6.58,0,0,0,180.19,27.81Z"/><path id="_Compound_Path_6" data-name="&lt;Compound Path&gt;" class="cls-1" d="M218.93,49.19,206.24,14.52h10.24l6.85,19.34a26.27,26.27,0,0,1,.95,3.26,26.12,26.12,0,0,1,1-3.26L232,14.52h10.24L229.58,49.19Z"/><path id="_Compound_Path_7" data-name="&lt;Compound Path&gt;" class="cls-2" d="M256.82,48.3a6.15,6.15,0,0,1-4.37,1.7,5.91,5.91,0,0,1-4.31-1.7,5.65,5.65,0,0,1-1.73-4.21,5.87,5.87,0,0,1,1.73-4.27,5.79,5.79,0,0,1,4.31-1.76,6,6,0,0,1,4.37,1.76,5.78,5.78,0,0,1,1.8,4.27A5.56,5.56,0,0,1,256.82,48.3Z"/><path id="_Compound_Path_8" data-name="&lt;Compound Path&gt;" class="cls-2" d="M271.16,11.19a5.52,5.52,0,0,1-4-1.66,5.35,5.35,0,0,1-1.7-4,5.31,5.31,0,0,1,1.66-3.93,5.82,5.82,0,0,1,8,0,5.33,5.33,0,0,1,1.63,4,5.47,5.47,0,0,1-1.63,4A5.38,5.38,0,0,1,271.16,11.19Zm-4.95,38V14.52H276V49.19Z"/><path id="_Compound_Path_9" data-name="&lt;Compound Path&gt;" class="cls-2" d="M300.68,50q-7.47,0-11.77-4.82t-4.31-13.3q0-8.41,4.34-13.3t11.74-4.89q7.33,0,11.64,4.89t4.31,13.3q0,8.48-4.28,13.3T300.68,50Zm0-9.5a5.19,5.19,0,0,0,4.51-2.27,10.92,10.92,0,0,0,1.59-6.34,11.09,11.09,0,0,0-1.59-6.38,5.17,5.17,0,0,0-4.51-2.31,5.36,5.36,0,0,0-4.54,2.31,10.56,10.56,0,0,0-1.7,6.38,10.4,10.4,0,0,0,1.7,6.34A5.38,5.38,0,0,0,300.68,40.5Z"/></g></g></svg>